<mxfile host="app.diagrams.net" agent="Mozilla/5.0 (Windows NT 10.0; Win64; x64) AppleWebKit/537.36 (KHTML, like Gecko) Chrome/132.0.0.0 Safari/537.36" version="26.0.11">
  <diagram id="R2lEEEUBdFMjLlhIrx00" name="Page-1">
    <mxGraphModel dx="1238" dy="413" grid="0" gridSize="10" guides="1" tooltips="1" connect="1" arrows="1" fold="1" page="0" pageScale="1" pageWidth="850" pageHeight="1100" background="#F5F5F5" math="0" shadow="0" extFonts="Permanent Marker^https://fonts.googleapis.com/css?family=Permanent+Marker">
      <root>
        <mxCell id="0" />
        <mxCell id="1" parent="0" />
        <mxCell id="eOG7zWgB_vqXZ_CHqgXf-169" style="edgeStyle=orthogonalEdgeStyle;rounded=0;orthogonalLoop=1;jettySize=auto;html=1;entryX=1;entryY=0.5;entryDx=0;entryDy=0;fillColor=#e1d5e7;strokeColor=#9673a6;" parent="1" source="eOG7zWgB_vqXZ_CHqgXf-1" target="eOG7zWgB_vqXZ_CHqgXf-164" edge="1">
          <mxGeometry relative="1" as="geometry">
            <Array as="points">
              <mxPoint x="230" y="524" />
            </Array>
          </mxGeometry>
        </mxCell>
        <mxCell id="eOG7zWgB_vqXZ_CHqgXf-234" value="&lt;font style=&quot;font-size: 13px;&quot;&gt;&lt;b&gt;1&lt;/b&gt;&lt;/font&gt;" style="edgeLabel;html=1;align=center;verticalAlign=middle;resizable=0;points=[];" parent="eOG7zWgB_vqXZ_CHqgXf-169" vertex="1" connectable="0">
          <mxGeometry x="-0.9217" y="3" relative="1" as="geometry">
            <mxPoint x="-3" y="-7" as="offset" />
          </mxGeometry>
        </mxCell>
        <mxCell id="eOG7zWgB_vqXZ_CHqgXf-1" value="Instructor" style="whiteSpace=wrap;html=1;align=center;" parent="1" vertex="1">
          <mxGeometry x="210" y="210" width="100" height="40" as="geometry" />
        </mxCell>
        <mxCell id="eOG7zWgB_vqXZ_CHqgXf-6" style="edgeStyle=orthogonalEdgeStyle;rounded=0;orthogonalLoop=1;jettySize=auto;html=1;entryX=0.5;entryY=0;entryDx=0;entryDy=0;" parent="1" source="eOG7zWgB_vqXZ_CHqgXf-5" target="eOG7zWgB_vqXZ_CHqgXf-1" edge="1">
          <mxGeometry relative="1" as="geometry" />
        </mxCell>
        <mxCell id="eOG7zWgB_vqXZ_CHqgXf-5" value="Name" style="ellipse;whiteSpace=wrap;html=1;align=center;" parent="1" vertex="1">
          <mxGeometry x="180" y="107.5" width="60" height="35" as="geometry" />
        </mxCell>
        <mxCell id="eOG7zWgB_vqXZ_CHqgXf-8" style="edgeStyle=orthogonalEdgeStyle;rounded=0;orthogonalLoop=1;jettySize=auto;html=1;entryX=0.75;entryY=0;entryDx=0;entryDy=0;" parent="1" source="eOG7zWgB_vqXZ_CHqgXf-7" target="eOG7zWgB_vqXZ_CHqgXf-1" edge="1">
          <mxGeometry relative="1" as="geometry" />
        </mxCell>
        <mxCell id="eOG7zWgB_vqXZ_CHqgXf-7" value="Email" style="ellipse;whiteSpace=wrap;html=1;align=center;" parent="1" vertex="1">
          <mxGeometry x="250" y="105" width="70" height="35" as="geometry" />
        </mxCell>
        <mxCell id="eOG7zWgB_vqXZ_CHqgXf-12" style="edgeStyle=orthogonalEdgeStyle;rounded=0;orthogonalLoop=1;jettySize=auto;html=1;entryX=0;entryY=0.5;entryDx=0;entryDy=0;" parent="1" target="eOG7zWgB_vqXZ_CHqgXf-1" edge="1">
          <mxGeometry relative="1" as="geometry">
            <mxPoint x="70" y="140" as="sourcePoint" />
            <Array as="points">
              <mxPoint x="70" y="210" />
              <mxPoint x="155" y="210" />
              <mxPoint x="155" y="230" />
            </Array>
          </mxGeometry>
        </mxCell>
        <mxCell id="eOG7zWgB_vqXZ_CHqgXf-171" style="edgeStyle=orthogonalEdgeStyle;rounded=0;orthogonalLoop=1;jettySize=auto;html=1;fillColor=#e1d5e7;strokeColor=#9673a6;" parent="1" source="eOG7zWgB_vqXZ_CHqgXf-13" target="eOG7zWgB_vqXZ_CHqgXf-145" edge="1">
          <mxGeometry relative="1" as="geometry">
            <Array as="points">
              <mxPoint x="570" y="320" />
              <mxPoint x="490" y="320" />
            </Array>
          </mxGeometry>
        </mxCell>
        <mxCell id="eOG7zWgB_vqXZ_CHqgXf-239" value="&lt;font style=&quot;font-size: 13px;&quot;&gt;&lt;b&gt;M&lt;/b&gt;&lt;/font&gt;" style="edgeLabel;html=1;align=center;verticalAlign=middle;resizable=0;points=[];" parent="eOG7zWgB_vqXZ_CHqgXf-171" vertex="1" connectable="0">
          <mxGeometry x="-0.8788" y="-3" relative="1" as="geometry">
            <mxPoint as="offset" />
          </mxGeometry>
        </mxCell>
        <mxCell id="aD6kt0wMqf6Wf5Ckh76Q-10" style="edgeStyle=orthogonalEdgeStyle;rounded=0;orthogonalLoop=1;jettySize=auto;html=1;entryX=1;entryY=0.5;entryDx=0;entryDy=0;fillColor=#e1d5e7;strokeColor=#9673a6;" edge="1" parent="1" source="eOG7zWgB_vqXZ_CHqgXf-13" target="aD6kt0wMqf6Wf5Ckh76Q-5">
          <mxGeometry relative="1" as="geometry">
            <mxPoint x="-139" y="319" as="targetPoint" />
            <Array as="points">
              <mxPoint x="590" y="276" />
              <mxPoint x="168" y="276" />
              <mxPoint x="168" y="287" />
            </Array>
          </mxGeometry>
        </mxCell>
        <mxCell id="aD6kt0wMqf6Wf5Ckh76Q-21" value="&lt;b&gt;&lt;font style=&quot;font-size: 13px;&quot;&gt;M&lt;/font&gt;&lt;/b&gt;" style="edgeLabel;html=1;align=center;verticalAlign=middle;resizable=0;points=[];" vertex="1" connectable="0" parent="aD6kt0wMqf6Wf5Ckh76Q-10">
          <mxGeometry x="-0.9735" y="1" relative="1" as="geometry">
            <mxPoint as="offset" />
          </mxGeometry>
        </mxCell>
        <mxCell id="aD6kt0wMqf6Wf5Ckh76Q-54" style="edgeStyle=orthogonalEdgeStyle;rounded=0;orthogonalLoop=1;jettySize=auto;html=1;entryX=0.5;entryY=0;entryDx=0;entryDy=0;fillColor=#f8cecc;strokeColor=#b85450;shape=link;" edge="1" parent="1" source="eOG7zWgB_vqXZ_CHqgXf-13" target="aD6kt0wMqf6Wf5Ckh76Q-50">
          <mxGeometry relative="1" as="geometry" />
        </mxCell>
        <mxCell id="aD6kt0wMqf6Wf5Ckh76Q-57" value="&lt;b&gt;&lt;font style=&quot;font-size: 13px;&quot;&gt;M&lt;/font&gt;&lt;/b&gt;" style="edgeLabel;html=1;align=center;verticalAlign=middle;resizable=0;points=[];" vertex="1" connectable="0" parent="aD6kt0wMqf6Wf5Ckh76Q-54">
          <mxGeometry x="-0.922" y="1" relative="1" as="geometry">
            <mxPoint as="offset" />
          </mxGeometry>
        </mxCell>
        <mxCell id="eOG7zWgB_vqXZ_CHqgXf-13" value="students" style="whiteSpace=wrap;html=1;align=center;" parent="1" vertex="1">
          <mxGeometry x="540" y="210" width="100" height="40" as="geometry" />
        </mxCell>
        <mxCell id="eOG7zWgB_vqXZ_CHqgXf-17" style="edgeStyle=orthogonalEdgeStyle;rounded=0;orthogonalLoop=1;jettySize=auto;html=1;" parent="1" source="eOG7zWgB_vqXZ_CHqgXf-16" target="eOG7zWgB_vqXZ_CHqgXf-13" edge="1">
          <mxGeometry relative="1" as="geometry" />
        </mxCell>
        <mxCell id="eOG7zWgB_vqXZ_CHqgXf-16" value="Name" style="ellipse;whiteSpace=wrap;html=1;align=center;" parent="1" vertex="1">
          <mxGeometry x="550" y="120" width="60" height="30" as="geometry" />
        </mxCell>
        <mxCell id="eOG7zWgB_vqXZ_CHqgXf-183" style="edgeStyle=orthogonalEdgeStyle;rounded=0;orthogonalLoop=1;jettySize=auto;html=1;entryX=0.5;entryY=1;entryDx=0;entryDy=0;fillColor=#f8cecc;strokeColor=#b85450;shape=link;" parent="1" source="eOG7zWgB_vqXZ_CHqgXf-24" target="eOG7zWgB_vqXZ_CHqgXf-182" edge="1">
          <mxGeometry relative="1" as="geometry" />
        </mxCell>
        <mxCell id="eOG7zWgB_vqXZ_CHqgXf-250" value="&lt;span style=&quot;font-size: 13px;&quot;&gt;&lt;b&gt;1&lt;/b&gt;&lt;/span&gt;" style="edgeLabel;html=1;align=center;verticalAlign=middle;resizable=0;points=[];" parent="eOG7zWgB_vqXZ_CHqgXf-183" vertex="1" connectable="0">
          <mxGeometry x="-0.6182" y="1" relative="1" as="geometry">
            <mxPoint x="1" as="offset" />
          </mxGeometry>
        </mxCell>
        <mxCell id="eOG7zWgB_vqXZ_CHqgXf-222" style="edgeStyle=orthogonalEdgeStyle;rounded=0;orthogonalLoop=1;jettySize=auto;html=1;entryX=0.5;entryY=1;entryDx=0;entryDy=0;fillColor=#e1d5e7;strokeColor=#9673a6;" parent="1" source="eOG7zWgB_vqXZ_CHqgXf-24" target="eOG7zWgB_vqXZ_CHqgXf-220" edge="1">
          <mxGeometry relative="1" as="geometry">
            <Array as="points">
              <mxPoint x="60" y="645" />
              <mxPoint x="80" y="645" />
            </Array>
          </mxGeometry>
        </mxCell>
        <mxCell id="eOG7zWgB_vqXZ_CHqgXf-253" value="&lt;b&gt;&lt;font style=&quot;font-size: 13px;&quot;&gt;N&lt;/font&gt;&lt;/b&gt;" style="edgeLabel;html=1;align=center;verticalAlign=middle;resizable=0;points=[];" parent="eOG7zWgB_vqXZ_CHqgXf-222" vertex="1" connectable="0">
          <mxGeometry x="-0.5639" y="1" relative="1" as="geometry">
            <mxPoint as="offset" />
          </mxGeometry>
        </mxCell>
        <mxCell id="eOG7zWgB_vqXZ_CHqgXf-24" value="Course" style="whiteSpace=wrap;html=1;align=center;" parent="1" vertex="1">
          <mxGeometry x="-30" y="665" width="100" height="40" as="geometry" />
        </mxCell>
        <mxCell id="aD6kt0wMqf6Wf5Ckh76Q-34" style="edgeStyle=orthogonalEdgeStyle;rounded=0;orthogonalLoop=1;jettySize=auto;html=1;entryX=0;entryY=0.5;entryDx=0;entryDy=0;" edge="1" parent="1" source="eOG7zWgB_vqXZ_CHqgXf-27" target="eOG7zWgB_vqXZ_CHqgXf-24">
          <mxGeometry relative="1" as="geometry" />
        </mxCell>
        <mxCell id="eOG7zWgB_vqXZ_CHqgXf-27" value="Name" style="ellipse;whiteSpace=wrap;html=1;align=center;" parent="1" vertex="1">
          <mxGeometry x="-143" y="740" width="60" height="30" as="geometry" />
        </mxCell>
        <mxCell id="eOG7zWgB_vqXZ_CHqgXf-188" style="edgeStyle=orthogonalEdgeStyle;rounded=0;orthogonalLoop=1;jettySize=auto;html=1;entryX=0.5;entryY=0;entryDx=0;entryDy=0;fillColor=#e1d5e7;strokeColor=#9673a6;" parent="1" source="eOG7zWgB_vqXZ_CHqgXf-30" target="eOG7zWgB_vqXZ_CHqgXf-185" edge="1">
          <mxGeometry relative="1" as="geometry">
            <Array as="points">
              <mxPoint x="710" y="320" />
              <mxPoint x="710" y="500" />
              <mxPoint x="705" y="500" />
            </Array>
          </mxGeometry>
        </mxCell>
        <mxCell id="eOG7zWgB_vqXZ_CHqgXf-257" value="&lt;b&gt;&lt;font style=&quot;font-size: 13px;&quot;&gt;1&lt;/font&gt;&lt;/b&gt;" style="edgeLabel;html=1;align=center;verticalAlign=middle;resizable=0;points=[];" parent="eOG7zWgB_vqXZ_CHqgXf-188" vertex="1" connectable="0">
          <mxGeometry x="-0.7617" y="2" relative="1" as="geometry">
            <mxPoint x="-2" as="offset" />
          </mxGeometry>
        </mxCell>
        <mxCell id="eOG7zWgB_vqXZ_CHqgXf-30" value="Semesters&amp;nbsp;" style="whiteSpace=wrap;html=1;align=center;" parent="1" vertex="1">
          <mxGeometry x="745" y="290" width="100" height="40" as="geometry" />
        </mxCell>
        <mxCell id="eOG7zWgB_vqXZ_CHqgXf-193" style="edgeStyle=orthogonalEdgeStyle;rounded=0;orthogonalLoop=1;jettySize=auto;html=1;entryX=1;entryY=0.25;entryDx=0;entryDy=0;" parent="1" source="eOG7zWgB_vqXZ_CHqgXf-33" target="eOG7zWgB_vqXZ_CHqgXf-30" edge="1">
          <mxGeometry relative="1" as="geometry" />
        </mxCell>
        <mxCell id="eOG7zWgB_vqXZ_CHqgXf-33" value="Active State" style="ellipse;whiteSpace=wrap;html=1;align=center;" parent="1" vertex="1">
          <mxGeometry x="900" y="340" width="70" height="35" as="geometry" />
        </mxCell>
        <mxCell id="eOG7zWgB_vqXZ_CHqgXf-42" style="edgeStyle=orthogonalEdgeStyle;rounded=0;orthogonalLoop=1;jettySize=auto;html=1;entryX=0;entryY=0.25;entryDx=0;entryDy=0;exitX=0.386;exitY=0.858;exitDx=0;exitDy=0;exitPerimeter=0;" parent="1" source="eOG7zWgB_vqXZ_CHqgXf-41" target="eOG7zWgB_vqXZ_CHqgXf-1" edge="1">
          <mxGeometry relative="1" as="geometry">
            <mxPoint x="140" y="150" as="sourcePoint" />
            <Array as="points">
              <mxPoint x="160" y="137" />
              <mxPoint x="160" y="190" />
              <mxPoint x="190" y="190" />
              <mxPoint x="190" y="220" />
            </Array>
          </mxGeometry>
        </mxCell>
        <mxCell id="eOG7zWgB_vqXZ_CHqgXf-41" value="&amp;nbsp;ID" style="ellipse;whiteSpace=wrap;html=1;align=center;fontStyle=4;" parent="1" vertex="1">
          <mxGeometry x="110" y="109.63" width="60" height="38.75" as="geometry" />
        </mxCell>
        <mxCell id="eOG7zWgB_vqXZ_CHqgXf-44" value="Code" style="ellipse;whiteSpace=wrap;html=1;align=center;fontStyle=4;" parent="1" vertex="1">
          <mxGeometry x="30" y="110" width="70" height="30" as="geometry" />
        </mxCell>
        <mxCell id="eOG7zWgB_vqXZ_CHqgXf-45" value="Class" style="whiteSpace=wrap;html=1;align=center;" parent="1" vertex="1">
          <mxGeometry x="-300" y="450" width="120" height="40" as="geometry" />
        </mxCell>
        <mxCell id="eOG7zWgB_vqXZ_CHqgXf-47" value="ID" style="ellipse;whiteSpace=wrap;html=1;align=center;fontStyle=4;" parent="1" vertex="1">
          <mxGeometry x="-225" y="602" width="50" height="20" as="geometry" />
        </mxCell>
        <mxCell id="eOG7zWgB_vqXZ_CHqgXf-52" style="edgeStyle=orthogonalEdgeStyle;rounded=0;orthogonalLoop=1;jettySize=auto;html=1;entryX=0.25;entryY=1;entryDx=0;entryDy=0;" parent="1" source="eOG7zWgB_vqXZ_CHqgXf-51" target="eOG7zWgB_vqXZ_CHqgXf-24" edge="1">
          <mxGeometry relative="1" as="geometry" />
        </mxCell>
        <mxCell id="eOG7zWgB_vqXZ_CHqgXf-51" value="ID" style="ellipse;whiteSpace=wrap;html=1;align=center;fontStyle=4;" parent="1" vertex="1">
          <mxGeometry x="-70" y="790" width="70" height="30" as="geometry" />
        </mxCell>
        <mxCell id="eOG7zWgB_vqXZ_CHqgXf-177" style="edgeStyle=orthogonalEdgeStyle;rounded=0;orthogonalLoop=1;jettySize=auto;html=1;exitX=0.5;exitY=0;exitDx=0;exitDy=0;" parent="1" source="eOG7zWgB_vqXZ_CHqgXf-55" target="eOG7zWgB_vqXZ_CHqgXf-30" edge="1">
          <mxGeometry relative="1" as="geometry" />
        </mxCell>
        <mxCell id="eOG7zWgB_vqXZ_CHqgXf-55" value="ID" style="ellipse;whiteSpace=wrap;html=1;align=center;fontStyle=4;" parent="1" vertex="1">
          <mxGeometry x="780" y="407.5" width="70" height="30" as="geometry" />
        </mxCell>
        <mxCell id="eOG7zWgB_vqXZ_CHqgXf-58" style="edgeStyle=orthogonalEdgeStyle;rounded=0;orthogonalLoop=1;jettySize=auto;html=1;entryX=0;entryY=0.5;entryDx=0;entryDy=0;" parent="1" source="eOG7zWgB_vqXZ_CHqgXf-57" target="eOG7zWgB_vqXZ_CHqgXf-13" edge="1">
          <mxGeometry relative="1" as="geometry" />
        </mxCell>
        <mxCell id="eOG7zWgB_vqXZ_CHqgXf-57" value="ID" style="ellipse;whiteSpace=wrap;html=1;align=center;fontStyle=4;" parent="1" vertex="1">
          <mxGeometry x="460" y="121.25" width="60" height="28.75" as="geometry" />
        </mxCell>
        <mxCell id="eOG7zWgB_vqXZ_CHqgXf-72" style="edgeStyle=orthogonalEdgeStyle;rounded=0;orthogonalLoop=1;jettySize=auto;html=1;entryX=0;entryY=0.75;entryDx=0;entryDy=0;" parent="1" source="eOG7zWgB_vqXZ_CHqgXf-70" target="eOG7zWgB_vqXZ_CHqgXf-13" edge="1">
          <mxGeometry relative="1" as="geometry" />
        </mxCell>
        <mxCell id="eOG7zWgB_vqXZ_CHqgXf-70" value="Email" style="ellipse;whiteSpace=wrap;html=1;align=center;fontStyle=4;" parent="1" vertex="1">
          <mxGeometry x="420" y="160" width="70" height="30" as="geometry" />
        </mxCell>
        <mxCell id="eOG7zWgB_vqXZ_CHqgXf-76" style="edgeStyle=orthogonalEdgeStyle;rounded=0;orthogonalLoop=1;jettySize=auto;html=1;entryX=1;entryY=0.75;entryDx=0;entryDy=0;" parent="1" source="eOG7zWgB_vqXZ_CHqgXf-75" target="eOG7zWgB_vqXZ_CHqgXf-1" edge="1">
          <mxGeometry relative="1" as="geometry" />
        </mxCell>
        <mxCell id="eOG7zWgB_vqXZ_CHqgXf-75" value="Is deleted" style="ellipse;whiteSpace=wrap;html=1;align=center;" parent="1" vertex="1">
          <mxGeometry x="350" y="190" width="70" height="30" as="geometry" />
        </mxCell>
        <mxCell id="eOG7zWgB_vqXZ_CHqgXf-78" style="edgeStyle=orthogonalEdgeStyle;rounded=0;orthogonalLoop=1;jettySize=auto;html=1;entryX=1;entryY=0.5;entryDx=0;entryDy=0;" parent="1" source="eOG7zWgB_vqXZ_CHqgXf-77" target="eOG7zWgB_vqXZ_CHqgXf-24" edge="1">
          <mxGeometry relative="1" as="geometry" />
        </mxCell>
        <mxCell id="eOG7zWgB_vqXZ_CHqgXf-77" value="Duration" style="ellipse;whiteSpace=wrap;html=1;align=center;" parent="1" vertex="1">
          <mxGeometry x="80" y="805" width="70" height="40" as="geometry" />
        </mxCell>
        <mxCell id="eOG7zWgB_vqXZ_CHqgXf-126" value="Exam&amp;nbsp;" style="whiteSpace=wrap;html=1;align=center;" parent="1" vertex="1">
          <mxGeometry x="610" y="545" width="80" height="30" as="geometry" />
        </mxCell>
        <mxCell id="eOG7zWgB_vqXZ_CHqgXf-128" value="ID" style="ellipse;whiteSpace=wrap;html=1;align=center;fontStyle=4;" parent="1" vertex="1">
          <mxGeometry x="540" y="700" width="80" height="30" as="geometry" />
        </mxCell>
        <mxCell id="eOG7zWgB_vqXZ_CHqgXf-135" style="edgeStyle=orthogonalEdgeStyle;rounded=0;orthogonalLoop=1;jettySize=auto;html=1;" parent="1" source="eOG7zWgB_vqXZ_CHqgXf-134" target="eOG7zWgB_vqXZ_CHqgXf-126" edge="1">
          <mxGeometry relative="1" as="geometry" />
        </mxCell>
        <mxCell id="eOG7zWgB_vqXZ_CHqgXf-134" value="Exam Type" style="ellipse;whiteSpace=wrap;html=1;align=center;" parent="1" vertex="1">
          <mxGeometry x="620" y="663" width="70" height="35" as="geometry" />
        </mxCell>
        <mxCell id="eOG7zWgB_vqXZ_CHqgXf-137" style="edgeStyle=orthogonalEdgeStyle;rounded=0;orthogonalLoop=1;jettySize=auto;html=1;entryX=1;entryY=0.5;entryDx=0;entryDy=0;" parent="1" source="eOG7zWgB_vqXZ_CHqgXf-136" target="eOG7zWgB_vqXZ_CHqgXf-126" edge="1">
          <mxGeometry relative="1" as="geometry" />
        </mxCell>
        <mxCell id="eOG7zWgB_vqXZ_CHqgXf-136" value="Date" style="ellipse;whiteSpace=wrap;html=1;align=center;" parent="1" vertex="1">
          <mxGeometry x="695" y="635" width="70" height="30" as="geometry" />
        </mxCell>
        <mxCell id="eOG7zWgB_vqXZ_CHqgXf-145" value="Enrolls in" style="shape=rhombus;perimeter=rhombusPerimeter;whiteSpace=wrap;html=1;align=center;fillColor=#e1d5e7;strokeColor=#9673a6;" parent="1" vertex="1">
          <mxGeometry x="285" y="327.5" width="90" height="60" as="geometry" />
        </mxCell>
        <mxCell id="eOG7zWgB_vqXZ_CHqgXf-156" style="edgeStyle=orthogonalEdgeStyle;rounded=0;orthogonalLoop=1;jettySize=auto;html=1;entryX=0.125;entryY=0.967;entryDx=0;entryDy=0;entryPerimeter=0;" parent="1" source="eOG7zWgB_vqXZ_CHqgXf-128" target="eOG7zWgB_vqXZ_CHqgXf-126" edge="1">
          <mxGeometry relative="1" as="geometry" />
        </mxCell>
        <mxCell id="eOG7zWgB_vqXZ_CHqgXf-157" style="edgeStyle=orthogonalEdgeStyle;rounded=0;orthogonalLoop=1;jettySize=auto;html=1;exitX=0.5;exitY=1;exitDx=0;exitDy=0;" parent="1" source="eOG7zWgB_vqXZ_CHqgXf-128" target="eOG7zWgB_vqXZ_CHqgXf-128" edge="1">
          <mxGeometry relative="1" as="geometry" />
        </mxCell>
        <mxCell id="eOG7zWgB_vqXZ_CHqgXf-158" style="edgeStyle=orthogonalEdgeStyle;rounded=0;orthogonalLoop=1;jettySize=auto;html=1;exitX=0.5;exitY=1;exitDx=0;exitDy=0;" parent="1" source="eOG7zWgB_vqXZ_CHqgXf-27" target="eOG7zWgB_vqXZ_CHqgXf-27" edge="1">
          <mxGeometry relative="1" as="geometry" />
        </mxCell>
        <mxCell id="eOG7zWgB_vqXZ_CHqgXf-167" style="edgeStyle=orthogonalEdgeStyle;rounded=0;orthogonalLoop=1;jettySize=auto;html=1;entryX=1;entryY=0.5;entryDx=0;entryDy=0;fillColor=#f8cecc;strokeColor=#b85450;shape=link;" parent="1" source="eOG7zWgB_vqXZ_CHqgXf-164" target="eOG7zWgB_vqXZ_CHqgXf-45" edge="1">
          <mxGeometry relative="1" as="geometry" />
        </mxCell>
        <mxCell id="eOG7zWgB_vqXZ_CHqgXf-235" value="&lt;font style=&quot;font-size: 13px;&quot;&gt;&lt;b&gt;M&lt;/b&gt;&lt;/font&gt;" style="edgeLabel;html=1;align=center;verticalAlign=middle;resizable=0;points=[];" parent="eOG7zWgB_vqXZ_CHqgXf-167" vertex="1" connectable="0">
          <mxGeometry x="0.7847" y="-1" relative="1" as="geometry">
            <mxPoint x="-10" y="-1" as="offset" />
          </mxGeometry>
        </mxCell>
        <mxCell id="eOG7zWgB_vqXZ_CHqgXf-164" value="Teaches" style="shape=rhombus;perimeter=rhombusPerimeter;whiteSpace=wrap;html=1;align=center;fillColor=#e1d5e7;strokeColor=#9673a6;" parent="1" vertex="1">
          <mxGeometry x="-16" y="486" width="100" height="52.5" as="geometry" />
        </mxCell>
        <mxCell id="eOG7zWgB_vqXZ_CHqgXf-184" style="edgeStyle=orthogonalEdgeStyle;rounded=0;orthogonalLoop=1;jettySize=auto;html=1;entryX=1;entryY=0.75;entryDx=0;entryDy=0;fillColor=#e1d5e7;strokeColor=#9673a6;" parent="1" source="eOG7zWgB_vqXZ_CHqgXf-182" target="eOG7zWgB_vqXZ_CHqgXf-45" edge="1">
          <mxGeometry relative="1" as="geometry" />
        </mxCell>
        <mxCell id="eOG7zWgB_vqXZ_CHqgXf-251" value="&lt;b&gt;&lt;font style=&quot;font-size: 13px;&quot;&gt;M&lt;/font&gt;&lt;/b&gt;" style="edgeLabel;html=1;align=center;verticalAlign=middle;resizable=0;points=[];" parent="eOG7zWgB_vqXZ_CHqgXf-184" vertex="1" connectable="0">
          <mxGeometry x="0.7854" y="2" relative="1" as="geometry">
            <mxPoint x="6" y="-2" as="offset" />
          </mxGeometry>
        </mxCell>
        <mxCell id="eOG7zWgB_vqXZ_CHqgXf-182" value="scheduled for&amp;nbsp;" style="shape=rhombus;perimeter=rhombusPerimeter;whiteSpace=wrap;html=1;align=center;fillColor=#e1d5e7;strokeColor=#9673a6;" parent="1" vertex="1">
          <mxGeometry x="-70" y="550" width="90" height="50" as="geometry" />
        </mxCell>
        <mxCell id="eOG7zWgB_vqXZ_CHqgXf-187" style="edgeStyle=orthogonalEdgeStyle;rounded=0;orthogonalLoop=1;jettySize=auto;html=1;entryX=1;entryY=0.25;entryDx=0;entryDy=0;fillColor=#f8cecc;strokeColor=#b85450;shape=link;" parent="1" source="eOG7zWgB_vqXZ_CHqgXf-185" target="eOG7zWgB_vqXZ_CHqgXf-45" edge="1">
          <mxGeometry relative="1" as="geometry">
            <mxPoint x="140" y="550" as="targetPoint" />
          </mxGeometry>
        </mxCell>
        <mxCell id="eOG7zWgB_vqXZ_CHqgXf-256" value="&lt;b&gt;&lt;font style=&quot;font-size: 13px;&quot;&gt;M&lt;/font&gt;&lt;/b&gt;" style="edgeLabel;html=1;align=center;verticalAlign=middle;resizable=0;points=[];" parent="eOG7zWgB_vqXZ_CHqgXf-187" vertex="1" connectable="0">
          <mxGeometry x="0.9062" y="-1" relative="1" as="geometry">
            <mxPoint x="-15" y="1" as="offset" />
          </mxGeometry>
        </mxCell>
        <mxCell id="eOG7zWgB_vqXZ_CHqgXf-185" value="Has" style="shape=rhombus;perimeter=rhombusPerimeter;whiteSpace=wrap;html=1;align=center;fillColor=#e1d5e7;strokeColor=#9673a6;" parent="1" vertex="1">
          <mxGeometry x="665" y="480" width="80" height="50" as="geometry" />
        </mxCell>
        <mxCell id="eOG7zWgB_vqXZ_CHqgXf-202" style="edgeStyle=orthogonalEdgeStyle;rounded=0;orthogonalLoop=1;jettySize=auto;html=1;entryX=0.917;entryY=0;entryDx=0;entryDy=0;entryPerimeter=0;fillColor=#f8cecc;strokeColor=#b85450;shape=link;" parent="1" source="eOG7zWgB_vqXZ_CHqgXf-145" target="eOG7zWgB_vqXZ_CHqgXf-45" edge="1">
          <mxGeometry relative="1" as="geometry" />
        </mxCell>
        <mxCell id="eOG7zWgB_vqXZ_CHqgXf-243" value="&lt;b&gt;&lt;font style=&quot;font-size: 13px;&quot;&gt;N&lt;/font&gt;&lt;/b&gt;" style="edgeLabel;html=1;align=center;verticalAlign=middle;resizable=0;points=[];" parent="eOG7zWgB_vqXZ_CHqgXf-202" vertex="1" connectable="0">
          <mxGeometry x="0.9074" y="-1" relative="1" as="geometry">
            <mxPoint as="offset" />
          </mxGeometry>
        </mxCell>
        <mxCell id="eOG7zWgB_vqXZ_CHqgXf-215" style="edgeStyle=orthogonalEdgeStyle;rounded=0;orthogonalLoop=1;jettySize=auto;html=1;entryX=0.5;entryY=0;entryDx=0;entryDy=0;fillColor=#f8cecc;strokeColor=#b85450;shape=link;" parent="1" source="eOG7zWgB_vqXZ_CHqgXf-210" target="eOG7zWgB_vqXZ_CHqgXf-126" edge="1">
          <mxGeometry relative="1" as="geometry" />
        </mxCell>
        <mxCell id="eOG7zWgB_vqXZ_CHqgXf-263" value="&lt;b&gt;&lt;font style=&quot;font-size: 13px;&quot;&gt;M&lt;/font&gt;&lt;/b&gt;" style="edgeLabel;html=1;align=center;verticalAlign=middle;resizable=0;points=[];" parent="eOG7zWgB_vqXZ_CHqgXf-215" vertex="1" connectable="0">
          <mxGeometry x="0.7512" y="2" relative="1" as="geometry">
            <mxPoint x="1" as="offset" />
          </mxGeometry>
        </mxCell>
        <mxCell id="eOG7zWgB_vqXZ_CHqgXf-210" value="has" style="shape=rhombus;perimeter=rhombusPerimeter;whiteSpace=wrap;html=1;align=center;fillColor=#e1d5e7;strokeColor=#9673a6;" parent="1" vertex="1">
          <mxGeometry x="310" y="514" width="80" height="55" as="geometry" />
        </mxCell>
        <mxCell id="eOG7zWgB_vqXZ_CHqgXf-252" style="edgeStyle=orthogonalEdgeStyle;rounded=0;orthogonalLoop=1;jettySize=auto;html=1;entryX=0.25;entryY=1;entryDx=0;entryDy=0;fillColor=#e1d5e7;strokeColor=#9673a6;" parent="1" source="eOG7zWgB_vqXZ_CHqgXf-220" target="eOG7zWgB_vqXZ_CHqgXf-30" edge="1">
          <mxGeometry relative="1" as="geometry" />
        </mxCell>
        <mxCell id="eOG7zWgB_vqXZ_CHqgXf-254" value="&lt;b&gt;&lt;font style=&quot;font-size: 13px;&quot;&gt;M&lt;/font&gt;&lt;/b&gt;" style="edgeLabel;html=1;align=center;verticalAlign=middle;resizable=0;points=[];" parent="eOG7zWgB_vqXZ_CHqgXf-252" vertex="1" connectable="0">
          <mxGeometry x="0.9585" y="-4" relative="1" as="geometry">
            <mxPoint x="-4" as="offset" />
          </mxGeometry>
        </mxCell>
        <mxCell id="eOG7zWgB_vqXZ_CHqgXf-220" value="offered in" style="shape=rhombus;perimeter=rhombusPerimeter;whiteSpace=wrap;html=1;align=center;fillColor=#e1d5e7;strokeColor=#9673a6;" parent="1" vertex="1">
          <mxGeometry x="50" y="575" width="100" height="45" as="geometry" />
        </mxCell>
        <mxCell id="eOG7zWgB_vqXZ_CHqgXf-247" style="edgeStyle=orthogonalEdgeStyle;rounded=0;orthogonalLoop=1;jettySize=auto;html=1;exitX=0.5;exitY=1;exitDx=0;exitDy=0;" parent="1" source="eOG7zWgB_vqXZ_CHqgXf-128" target="eOG7zWgB_vqXZ_CHqgXf-128" edge="1">
          <mxGeometry relative="1" as="geometry" />
        </mxCell>
        <mxCell id="eOG7zWgB_vqXZ_CHqgXf-309" style="edgeStyle=orthogonalEdgeStyle;rounded=0;orthogonalLoop=1;jettySize=auto;html=1;entryX=1;entryY=0.5;entryDx=0;entryDy=0;fillColor=#f8cecc;strokeColor=#b85450;shape=link;" parent="1" source="eOG7zWgB_vqXZ_CHqgXf-293" target="eOG7zWgB_vqXZ_CHqgXf-306" edge="1">
          <mxGeometry relative="1" as="geometry" />
        </mxCell>
        <mxCell id="eOG7zWgB_vqXZ_CHqgXf-311" value="&lt;b&gt;&lt;font style=&quot;font-size: 13px;&quot;&gt;M&lt;/font&gt;&lt;/b&gt;" style="edgeLabel;html=1;align=center;verticalAlign=middle;resizable=0;points=[];" parent="eOG7zWgB_vqXZ_CHqgXf-309" vertex="1" connectable="0">
          <mxGeometry x="-0.8805" y="-2" relative="1" as="geometry">
            <mxPoint as="offset" />
          </mxGeometry>
        </mxCell>
        <mxCell id="eOG7zWgB_vqXZ_CHqgXf-293" value="Academic year&amp;nbsp;" style="rounded=1;arcSize=10;whiteSpace=wrap;html=1;align=center;" parent="1" vertex="1">
          <mxGeometry x="850" y="740" width="100" height="40" as="geometry" />
        </mxCell>
        <mxCell id="eOG7zWgB_vqXZ_CHqgXf-295" value="yearStart" style="ellipse;whiteSpace=wrap;html=1;align=center;" parent="1" vertex="1">
          <mxGeometry x="940" y="820" width="80" height="30" as="geometry" />
        </mxCell>
        <mxCell id="eOG7zWgB_vqXZ_CHqgXf-298" style="edgeStyle=orthogonalEdgeStyle;rounded=0;orthogonalLoop=1;jettySize=auto;html=1;entryX=0.25;entryY=1;entryDx=0;entryDy=0;" parent="1" source="eOG7zWgB_vqXZ_CHqgXf-296" target="eOG7zWgB_vqXZ_CHqgXf-293" edge="1">
          <mxGeometry relative="1" as="geometry" />
        </mxCell>
        <mxCell id="eOG7zWgB_vqXZ_CHqgXf-296" value="ID" style="ellipse;whiteSpace=wrap;html=1;align=center;fontStyle=4;" parent="1" vertex="1">
          <mxGeometry x="780" y="860" width="70" height="30" as="geometry" />
        </mxCell>
        <mxCell id="eOG7zWgB_vqXZ_CHqgXf-300" style="edgeStyle=orthogonalEdgeStyle;rounded=0;orthogonalLoop=1;jettySize=auto;html=1;entryX=0.75;entryY=1;entryDx=0;entryDy=0;" parent="1" source="eOG7zWgB_vqXZ_CHqgXf-297" target="eOG7zWgB_vqXZ_CHqgXf-293" edge="1">
          <mxGeometry relative="1" as="geometry" />
        </mxCell>
        <mxCell id="eOG7zWgB_vqXZ_CHqgXf-297" value="yearEnd" style="ellipse;whiteSpace=wrap;html=1;align=center;" parent="1" vertex="1">
          <mxGeometry x="870" y="870" width="80" height="30" as="geometry" />
        </mxCell>
        <mxCell id="eOG7zWgB_vqXZ_CHqgXf-301" style="edgeStyle=orthogonalEdgeStyle;rounded=0;orthogonalLoop=1;jettySize=auto;html=1;entryX=0.9;entryY=1.125;entryDx=0;entryDy=0;entryPerimeter=0;" parent="1" source="eOG7zWgB_vqXZ_CHqgXf-295" target="eOG7zWgB_vqXZ_CHqgXf-293" edge="1">
          <mxGeometry relative="1" as="geometry" />
        </mxCell>
        <mxCell id="eOG7zWgB_vqXZ_CHqgXf-302" value="consist of" style="shape=rhombus;perimeter=rhombusPerimeter;whiteSpace=wrap;html=1;align=center;fillColor=#e1d5e7;strokeColor=#9673a6;" parent="1" vertex="1">
          <mxGeometry x="930" y="590" width="120" height="60" as="geometry" />
        </mxCell>
        <mxCell id="eOG7zWgB_vqXZ_CHqgXf-304" style="edgeStyle=orthogonalEdgeStyle;rounded=0;orthogonalLoop=1;jettySize=auto;html=1;entryX=0.555;entryY=0.897;entryDx=0;entryDy=0;entryPerimeter=0;fillColor=#f8cecc;strokeColor=#b85450;shape=link;" parent="1" source="eOG7zWgB_vqXZ_CHqgXf-293" target="eOG7zWgB_vqXZ_CHqgXf-302" edge="1">
          <mxGeometry relative="1" as="geometry" />
        </mxCell>
        <mxCell id="eOG7zWgB_vqXZ_CHqgXf-312" value="&lt;font style=&quot;font-size: 13px;&quot;&gt;&lt;b&gt;1&lt;/b&gt;&lt;/font&gt;" style="edgeLabel;html=1;align=center;verticalAlign=middle;resizable=0;points=[];" parent="eOG7zWgB_vqXZ_CHqgXf-304" vertex="1" connectable="0">
          <mxGeometry x="-0.7468" relative="1" as="geometry">
            <mxPoint y="4" as="offset" />
          </mxGeometry>
        </mxCell>
        <mxCell id="eOG7zWgB_vqXZ_CHqgXf-305" style="edgeStyle=orthogonalEdgeStyle;rounded=0;orthogonalLoop=1;jettySize=auto;html=1;entryX=0.853;entryY=1.03;entryDx=0;entryDy=0;entryPerimeter=0;fillColor=#f8cecc;strokeColor=#b85450;shape=link;" parent="1" source="eOG7zWgB_vqXZ_CHqgXf-302" target="eOG7zWgB_vqXZ_CHqgXf-30" edge="1">
          <mxGeometry relative="1" as="geometry">
            <Array as="points">
              <mxPoint x="990" y="480" />
              <mxPoint x="860" y="480" />
              <mxPoint x="860" y="350" />
              <mxPoint x="830" y="350" />
            </Array>
          </mxGeometry>
        </mxCell>
        <mxCell id="eOG7zWgB_vqXZ_CHqgXf-313" value="&lt;b&gt;&lt;font style=&quot;font-size: 13px;&quot;&gt;M&lt;/font&gt;&lt;/b&gt;" style="edgeLabel;html=1;align=center;verticalAlign=middle;resizable=0;points=[];" parent="eOG7zWgB_vqXZ_CHqgXf-305" vertex="1" connectable="0">
          <mxGeometry x="0.8833" relative="1" as="geometry">
            <mxPoint as="offset" />
          </mxGeometry>
        </mxCell>
        <mxCell id="eOG7zWgB_vqXZ_CHqgXf-307" style="edgeStyle=orthogonalEdgeStyle;rounded=0;orthogonalLoop=1;jettySize=auto;html=1;fillColor=#e1d5e7;strokeColor=#9673a6;entryX=0.5;entryY=1;entryDx=0;entryDy=0;" parent="1" source="eOG7zWgB_vqXZ_CHqgXf-306" target="eOG7zWgB_vqXZ_CHqgXf-24" edge="1">
          <mxGeometry relative="1" as="geometry">
            <mxPoint x="-220" y="620" as="targetPoint" />
            <Array as="points">
              <mxPoint x="10" y="905" />
              <mxPoint x="10" y="730" />
              <mxPoint x="20" y="730" />
            </Array>
          </mxGeometry>
        </mxCell>
        <mxCell id="eOG7zWgB_vqXZ_CHqgXf-310" value="&lt;b&gt;&lt;font style=&quot;font-size: 13px;&quot;&gt;M&lt;/font&gt;&lt;/b&gt;" style="edgeLabel;html=1;align=center;verticalAlign=middle;resizable=0;points=[];" parent="eOG7zWgB_vqXZ_CHqgXf-307" vertex="1" connectable="0">
          <mxGeometry x="0.8524" relative="1" as="geometry">
            <mxPoint as="offset" />
          </mxGeometry>
        </mxCell>
        <mxCell id="eOG7zWgB_vqXZ_CHqgXf-306" value="consists of" style="shape=rhombus;perimeter=rhombusPerimeter;whiteSpace=wrap;html=1;align=center;fillColor=#e1d5e7;strokeColor=#9673a6;" parent="1" vertex="1">
          <mxGeometry x="195.5" y="872" width="129" height="70" as="geometry" />
        </mxCell>
        <mxCell id="aD6kt0wMqf6Wf5Ckh76Q-2" style="edgeStyle=orthogonalEdgeStyle;rounded=0;orthogonalLoop=1;jettySize=auto;html=1;entryX=1;entryY=0.5;entryDx=0;entryDy=0;" edge="1" parent="1" source="aD6kt0wMqf6Wf5Ckh76Q-1" target="eOG7zWgB_vqXZ_CHqgXf-30">
          <mxGeometry relative="1" as="geometry" />
        </mxCell>
        <mxCell id="aD6kt0wMqf6Wf5Ckh76Q-1" value="Name" style="ellipse;whiteSpace=wrap;html=1;align=center;" vertex="1" parent="1">
          <mxGeometry x="897" y="292" width="71" height="36" as="geometry" />
        </mxCell>
        <mxCell id="aD6kt0wMqf6Wf5Ckh76Q-4" style="edgeStyle=orthogonalEdgeStyle;rounded=0;orthogonalLoop=1;jettySize=auto;html=1;entryX=0;entryY=0.75;entryDx=0;entryDy=0;" edge="1" parent="1" source="aD6kt0wMqf6Wf5Ckh76Q-3" target="eOG7zWgB_vqXZ_CHqgXf-45">
          <mxGeometry relative="1" as="geometry" />
        </mxCell>
        <mxCell id="aD6kt0wMqf6Wf5Ckh76Q-3" value="Name&amp;nbsp;" style="ellipse;whiteSpace=wrap;html=1;align=center;" vertex="1" parent="1">
          <mxGeometry x="-305" y="588" width="64" height="27" as="geometry" />
        </mxCell>
        <mxCell id="aD6kt0wMqf6Wf5Ckh76Q-5" value="Attend&amp;nbsp;" style="shape=rhombus;perimeter=rhombusPerimeter;whiteSpace=wrap;html=1;align=center;fillColor=#e1d5e7;strokeColor=#9673a6;" vertex="1" parent="1">
          <mxGeometry x="-317" y="260" width="113" height="54" as="geometry" />
        </mxCell>
        <mxCell id="aD6kt0wMqf6Wf5Ckh76Q-7" style="edgeStyle=orthogonalEdgeStyle;rounded=0;orthogonalLoop=1;jettySize=auto;html=1;fillColor=#d5e8d4;strokeColor=#82b366;" edge="1" parent="1" source="aD6kt0wMqf6Wf5Ckh76Q-6" target="eOG7zWgB_vqXZ_CHqgXf-145">
          <mxGeometry relative="1" as="geometry" />
        </mxCell>
        <mxCell id="aD6kt0wMqf6Wf5Ckh76Q-6" value="Date" style="ellipse;whiteSpace=wrap;html=1;align=center;fillColor=#d5e8d4;strokeColor=#82b366;" vertex="1" parent="1">
          <mxGeometry x="294" y="420" width="72" height="27" as="geometry" />
        </mxCell>
        <mxCell id="aD6kt0wMqf6Wf5Ckh76Q-8" style="edgeStyle=orthogonalEdgeStyle;rounded=0;orthogonalLoop=1;jettySize=auto;html=1;entryX=0.451;entryY=0.963;entryDx=0;entryDy=0;entryPerimeter=0;fillColor=#f8cecc;strokeColor=#b85450;shape=link;" edge="1" parent="1" source="eOG7zWgB_vqXZ_CHqgXf-45" target="aD6kt0wMqf6Wf5Ckh76Q-5">
          <mxGeometry relative="1" as="geometry" />
        </mxCell>
        <mxCell id="aD6kt0wMqf6Wf5Ckh76Q-20" value="&lt;b&gt;&lt;font style=&quot;font-size: 13px;&quot;&gt;N&lt;/font&gt;&lt;/b&gt;" style="edgeLabel;html=1;align=center;verticalAlign=middle;resizable=0;points=[];" vertex="1" connectable="0" parent="aD6kt0wMqf6Wf5Ckh76Q-8">
          <mxGeometry x="-0.7805" relative="1" as="geometry">
            <mxPoint y="2" as="offset" />
          </mxGeometry>
        </mxCell>
        <mxCell id="aD6kt0wMqf6Wf5Ckh76Q-18" style="edgeStyle=orthogonalEdgeStyle;rounded=0;orthogonalLoop=1;jettySize=auto;html=1;entryX=0.5;entryY=0;entryDx=0;entryDy=0;fillColor=#d5e8d4;strokeColor=#82b366;" edge="1" parent="1" source="aD6kt0wMqf6Wf5Ckh76Q-12" target="aD6kt0wMqf6Wf5Ckh76Q-5">
          <mxGeometry relative="1" as="geometry" />
        </mxCell>
        <mxCell id="aD6kt0wMqf6Wf5Ckh76Q-12" value="Statues" style="ellipse;whiteSpace=wrap;html=1;align=center;fillColor=#d5e8d4;strokeColor=#82b366;" vertex="1" parent="1">
          <mxGeometry x="-394" y="179" width="80" height="33" as="geometry" />
        </mxCell>
        <mxCell id="aD6kt0wMqf6Wf5Ckh76Q-16" style="edgeStyle=orthogonalEdgeStyle;rounded=0;orthogonalLoop=1;jettySize=auto;html=1;entryX=0.5;entryY=0;entryDx=0;entryDy=0;fillColor=#d5e8d4;strokeColor=#82b366;" edge="1" parent="1" source="aD6kt0wMqf6Wf5Ckh76Q-13" target="aD6kt0wMqf6Wf5Ckh76Q-5">
          <mxGeometry relative="1" as="geometry" />
        </mxCell>
        <mxCell id="aD6kt0wMqf6Wf5Ckh76Q-13" value="Date" style="ellipse;whiteSpace=wrap;html=1;align=center;fillColor=#d5e8d4;strokeColor=#82b366;" vertex="1" parent="1">
          <mxGeometry x="-310" y="157" width="80" height="36" as="geometry" />
        </mxCell>
        <mxCell id="aD6kt0wMqf6Wf5Ckh76Q-19" style="edgeStyle=orthogonalEdgeStyle;rounded=0;orthogonalLoop=1;jettySize=auto;html=1;entryX=0.5;entryY=0;entryDx=0;entryDy=0;fillColor=#d5e8d4;strokeColor=#82b366;" edge="1" parent="1" source="aD6kt0wMqf6Wf5Ckh76Q-14" target="aD6kt0wMqf6Wf5Ckh76Q-5">
          <mxGeometry relative="1" as="geometry" />
        </mxCell>
        <mxCell id="aD6kt0wMqf6Wf5Ckh76Q-14" value="LateMinutes" style="ellipse;whiteSpace=wrap;html=1;align=center;fillColor=#d5e8d4;strokeColor=#82b366;" vertex="1" parent="1">
          <mxGeometry x="-238" y="204" width="80" height="33" as="geometry" />
        </mxCell>
        <mxCell id="aD6kt0wMqf6Wf5Ckh76Q-24" style="edgeStyle=orthogonalEdgeStyle;rounded=0;orthogonalLoop=1;jettySize=auto;html=1;entryX=0;entryY=0.75;entryDx=0;entryDy=0;shape=link;fillColor=#f8cecc;strokeColor=#b85450;" edge="1" parent="1" source="aD6kt0wMqf6Wf5Ckh76Q-23" target="eOG7zWgB_vqXZ_CHqgXf-126">
          <mxGeometry relative="1" as="geometry" />
        </mxCell>
        <mxCell id="aD6kt0wMqf6Wf5Ckh76Q-28" value="&lt;b&gt;N&lt;/b&gt;" style="edgeLabel;html=1;align=center;verticalAlign=middle;resizable=0;points=[];" vertex="1" connectable="0" parent="aD6kt0wMqf6Wf5Ckh76Q-24">
          <mxGeometry x="0.719" relative="1" as="geometry">
            <mxPoint y="1" as="offset" />
          </mxGeometry>
        </mxCell>
        <mxCell id="aD6kt0wMqf6Wf5Ckh76Q-26" style="edgeStyle=orthogonalEdgeStyle;rounded=0;orthogonalLoop=1;jettySize=auto;html=1;entryX=0.75;entryY=1;entryDx=0;entryDy=0;fillColor=#e1d5e7;strokeColor=#9673a6;" edge="1" parent="1" source="aD6kt0wMqf6Wf5Ckh76Q-23" target="eOG7zWgB_vqXZ_CHqgXf-13">
          <mxGeometry relative="1" as="geometry">
            <Array as="points">
              <mxPoint x="397" y="390" />
              <mxPoint x="615" y="390" />
            </Array>
          </mxGeometry>
        </mxCell>
        <mxCell id="aD6kt0wMqf6Wf5Ckh76Q-27" value="&lt;b&gt;&lt;font style=&quot;font-size: 13px;&quot;&gt;M&lt;/font&gt;&lt;/b&gt;" style="edgeLabel;html=1;align=center;verticalAlign=middle;resizable=0;points=[];" vertex="1" connectable="0" parent="aD6kt0wMqf6Wf5Ckh76Q-26">
          <mxGeometry x="0.8847" y="-1" relative="1" as="geometry">
            <mxPoint as="offset" />
          </mxGeometry>
        </mxCell>
        <mxCell id="aD6kt0wMqf6Wf5Ckh76Q-31" style="edgeStyle=orthogonalEdgeStyle;rounded=0;orthogonalLoop=1;jettySize=auto;html=1;fillColor=#d5e8d4;strokeColor=#82b366;" edge="1" parent="1" source="aD6kt0wMqf6Wf5Ckh76Q-23" target="aD6kt0wMqf6Wf5Ckh76Q-29">
          <mxGeometry relative="1" as="geometry" />
        </mxCell>
        <mxCell id="aD6kt0wMqf6Wf5Ckh76Q-23" value="ExamMarkes" style="shape=rhombus;perimeter=rhombusPerimeter;whiteSpace=wrap;html=1;align=center;fillColor=#e1d5e7;strokeColor=#9673a6;" vertex="1" parent="1">
          <mxGeometry x="349" y="622" width="96" height="45" as="geometry" />
        </mxCell>
        <mxCell id="aD6kt0wMqf6Wf5Ckh76Q-29" value="Grade" style="ellipse;whiteSpace=wrap;html=1;align=center;fillColor=#d5e8d4;strokeColor=#82b366;" vertex="1" parent="1">
          <mxGeometry x="356" y="715" width="82" height="31" as="geometry" />
        </mxCell>
        <mxCell id="aD6kt0wMqf6Wf5Ckh76Q-33" style="edgeStyle=orthogonalEdgeStyle;rounded=0;orthogonalLoop=1;jettySize=auto;html=1;entryX=0.679;entryY=0.916;entryDx=0;entryDy=0;entryPerimeter=0;" edge="1" parent="1" source="eOG7zWgB_vqXZ_CHqgXf-47" target="eOG7zWgB_vqXZ_CHqgXf-45">
          <mxGeometry relative="1" as="geometry" />
        </mxCell>
        <mxCell id="aD6kt0wMqf6Wf5Ckh76Q-41" style="edgeStyle=orthogonalEdgeStyle;rounded=0;orthogonalLoop=1;jettySize=auto;html=1;" edge="1" parent="1" source="aD6kt0wMqf6Wf5Ckh76Q-35" target="eOG7zWgB_vqXZ_CHqgXf-1">
          <mxGeometry relative="1" as="geometry">
            <mxPoint x="317.9411764705883" y="219.58823529411768" as="targetPoint" />
            <Array as="points">
              <mxPoint x="371" y="181" />
              <mxPoint x="318" y="181" />
              <mxPoint x="318" y="230" />
            </Array>
          </mxGeometry>
        </mxCell>
        <mxCell id="aD6kt0wMqf6Wf5Ckh76Q-35" value="MobilNum" style="ellipse;whiteSpace=wrap;html=1;align=center;" vertex="1" parent="1">
          <mxGeometry x="330" y="102.5" width="81" height="40.5" as="geometry" />
        </mxCell>
        <mxCell id="aD6kt0wMqf6Wf5Ckh76Q-36" value="MobilNum" style="ellipse;whiteSpace=wrap;html=1;align=center;" vertex="1" parent="1">
          <mxGeometry x="613" y="121.25" width="70" height="31.75" as="geometry" />
        </mxCell>
        <mxCell id="aD6kt0wMqf6Wf5Ckh76Q-43" style="edgeStyle=orthogonalEdgeStyle;rounded=0;orthogonalLoop=1;jettySize=auto;html=1;entryX=0.817;entryY=0.925;entryDx=0;entryDy=0;entryPerimeter=0;fillColor=#e1d5e7;strokeColor=#9673a6;" edge="1" parent="1" source="eOG7zWgB_vqXZ_CHqgXf-210" target="eOG7zWgB_vqXZ_CHqgXf-45">
          <mxGeometry relative="1" as="geometry">
            <Array as="points">
              <mxPoint x="-202" y="542" />
            </Array>
          </mxGeometry>
        </mxCell>
        <mxCell id="aD6kt0wMqf6Wf5Ckh76Q-44" value="&lt;b&gt;&lt;font style=&quot;font-size: 13px;&quot;&gt;1&lt;/font&gt;&lt;/b&gt;" style="edgeLabel;html=1;align=center;verticalAlign=middle;resizable=0;points=[];" vertex="1" connectable="0" parent="aD6kt0wMqf6Wf5Ckh76Q-43">
          <mxGeometry x="0.9302" relative="1" as="geometry">
            <mxPoint as="offset" />
          </mxGeometry>
        </mxCell>
        <mxCell id="aD6kt0wMqf6Wf5Ckh76Q-50" value="has" style="shape=rhombus;perimeter=rhombusPerimeter;whiteSpace=wrap;html=1;align=center;fillColor=#e1d5e7;strokeColor=#9673a6;" vertex="1" parent="1">
          <mxGeometry x="837" y="550.5" width="93" height="42" as="geometry" />
        </mxCell>
        <mxCell id="aD6kt0wMqf6Wf5Ckh76Q-52" style="edgeStyle=orthogonalEdgeStyle;rounded=0;orthogonalLoop=1;jettySize=auto;html=1;entryX=0.94;entryY=0.1;entryDx=0;entryDy=0;entryPerimeter=0;" edge="1" parent="1" source="aD6kt0wMqf6Wf5Ckh76Q-36" target="eOG7zWgB_vqXZ_CHqgXf-13">
          <mxGeometry relative="1" as="geometry" />
        </mxCell>
        <mxCell id="aD6kt0wMqf6Wf5Ckh76Q-56" style="edgeStyle=orthogonalEdgeStyle;rounded=0;orthogonalLoop=1;jettySize=auto;html=1;entryX=0.13;entryY=0.1;entryDx=0;entryDy=0;entryPerimeter=0;fillColor=#e1d5e7;strokeColor=#9673a6;" edge="1" parent="1" source="aD6kt0wMqf6Wf5Ckh76Q-50" target="eOG7zWgB_vqXZ_CHqgXf-293">
          <mxGeometry relative="1" as="geometry" />
        </mxCell>
        <mxCell id="aD6kt0wMqf6Wf5Ckh76Q-58" value="&lt;font style=&quot;font-size: 13px;&quot;&gt;&lt;b&gt;1&lt;/b&gt;&lt;/font&gt;" style="edgeLabel;html=1;align=center;verticalAlign=middle;resizable=0;points=[];" vertex="1" connectable="0" parent="aD6kt0wMqf6Wf5Ckh76Q-56">
          <mxGeometry x="0.7442" y="1" relative="1" as="geometry">
            <mxPoint x="-1" y="2" as="offset" />
          </mxGeometry>
        </mxCell>
      </root>
    </mxGraphModel>
  </diagram>
</mxfile>
